<svg width="192" height="220" viewBox="0 0 192 220" fill="none" xmlns="http://www.w3.org/2000/svg">
<g clip-path="url(#clip0_122_3170)">
<path d="M82.5792 214.445C61.5833 202.433 40.5926 190.42 19.5967 178.413C7.46646 171.471 -0.00683594 158.626 -0.00683594 144.728V68.1054C-0.00683594 55.5481 6.09521 43.7661 16.3848 36.4685C29.9444 26.8449 43.5092 17.2265 57.0687 7.60291C68.334 -0.391442 83.0064 -1.87401 95.664 3.68956C119.687 14.2561 143.705 24.8227 167.728 35.3893C181.884 41.6182 191.013 55.5481 191.018 70.9239C191.029 96.6619 191.034 122.395 191.045 148.133C191.045 161.177 184.463 173.357 173.514 180.561C159.575 189.729 139.797 202.715 123.569 213.277C111.222 221.313 95.374 221.764 82.5844 214.445H82.5792Z" fill="#52FFB8"/>
<path d="M95.442 184.673C70.8545 164.478 46.2669 144.283 21.6794 124.092C12.9351 116.91 11.9963 103.934 19.612 95.583C37.3433 76.1524 55.0693 56.7166 72.8006 37.2861C80.2686 29.1031 92.9948 28.6002 101.09 36.1702C123.194 56.8424 145.303 77.5145 167.406 98.1867C174.958 105.254 175.792 116.894 169.315 124.946L123.584 181.792C116.659 190.405 103.991 191.704 95.442 184.679V184.673Z" fill="#9DA3A4"/>
<path d="M55.3709 97.4421C54.2633 97.4421 53.4089 97.7878 52.813 98.4793C52.217 99.1709 51.9164 100.124 51.9164 101.34V102.314H56.8159C57.2431 102.314 57.4541 102.524 57.4541 102.948V105.997C57.4541 106.421 57.2431 106.631 56.8159 106.631H51.9164V123.311C51.9164 123.735 51.7054 123.945 51.2782 123.945H47.6128C47.1856 123.945 46.9746 123.735 46.9746 123.311V101.34C46.9746 98.7151 47.6919 96.6982 49.1264 95.2837C50.5609 93.8745 52.3858 93.1672 54.6009 93.1672C55.682 93.1672 56.547 93.2249 57.2009 93.3349C57.5965 93.3611 57.7969 93.5863 57.7969 94.0107V96.9287C57.7969 97.353 57.6281 97.5626 57.2853 97.5626C56.7738 97.4787 56.1356 97.4368 55.3656 97.4368L55.3709 97.4421Z" fill="#52FFB8"/>
<path d="M78.0017 114.463C78.0017 114.861 77.7907 115.055 77.3635 115.055H64.4052V116.239C64.4052 117.506 64.8113 118.476 65.6183 119.136C66.4305 119.801 67.5275 120.131 68.9198 120.131C70.1434 120.131 71.2193 119.963 72.1581 119.623C73.0968 119.282 74.0198 118.806 74.9269 118.182C75.0693 118.098 75.1959 118.056 75.3119 118.056C75.5124 118.056 75.6653 118.14 75.7813 118.313L77.527 120.639C77.6378 120.754 77.6958 120.88 77.6958 121.022C77.6958 121.247 77.5956 121.42 77.3952 121.53C74.9217 123.479 72.0368 124.448 68.7458 124.448C67.0686 124.448 65.5286 124.144 64.1204 123.536C62.7123 122.928 61.5784 122.006 60.7134 120.765C59.8485 119.523 59.416 117.999 59.416 116.191V110.183C59.416 108.208 59.8538 106.568 60.7345 105.274C61.6153 103.975 62.765 103.021 64.189 102.414C65.6077 101.806 67.1425 101.502 68.7932 101.502C70.444 101.502 71.9629 101.806 73.3553 102.414C74.7476 103.021 75.871 103.975 76.7201 105.274C77.5745 106.573 77.9964 108.208 77.9964 110.183V114.457L78.0017 114.463ZM73.1865 110.146C73.1865 108.679 72.7751 107.595 71.9524 106.887C71.1296 106.18 70.0748 105.829 68.7985 105.829C67.5222 105.829 66.3988 106.175 65.6025 106.866C64.8061 107.558 64.4105 108.653 64.4105 110.146V111.246H73.1918V110.146H73.1865Z" fill="#52FFB8"/>
<path d="M82.601 123.945C82.1738 123.945 81.9629 123.735 81.9629 123.311V103.922C81.9629 103.555 82.1158 103.304 82.4323 103.163C84.9902 102.062 87.8171 101.512 90.9129 101.512C94.0088 101.512 96.4296 102.282 98.1805 103.817C99.9262 105.358 100.802 107.746 100.802 110.994V123.316C100.802 123.74 100.601 123.95 100.206 123.95H96.4981C96.0709 123.95 95.86 123.74 95.86 123.316V111.084C95.86 109.192 95.4486 107.862 94.6258 107.081C93.8031 106.306 92.5637 105.918 90.9182 105.918C89.4415 105.918 88.1071 106.075 86.9099 106.384V123.321C86.9099 123.746 86.699 123.955 86.2718 123.955H82.6063L82.601 123.945Z" fill="#52FFB8"/>
<path d="M119.641 122.651C117.963 123.851 115.791 124.448 113.122 124.448C109.884 124.448 106.999 123.531 104.472 121.698C104.272 121.582 104.172 121.441 104.172 121.273C104.172 121.106 104.214 120.964 104.298 120.849L105.918 118.099C106.06 117.873 106.202 117.758 106.345 117.758C106.403 117.758 106.545 117.816 106.772 117.926C107.737 118.633 108.776 119.167 109.884 119.534C110.991 119.901 112.099 120.084 113.206 120.084C114.372 120.084 115.321 119.874 116.06 119.45C116.798 119.026 117.167 118.418 117.167 117.627C117.167 116.836 116.819 116.317 116.123 115.977C115.427 115.636 114.451 115.359 113.201 115.128C110.817 114.678 108.781 113.949 107.104 112.949C105.427 111.948 104.589 110.329 104.589 108.103C104.589 105.876 105.464 104.242 107.21 103.126C108.955 102.01 111.097 101.455 113.623 101.455C116.149 101.455 118.623 102.105 121.038 103.404C121.265 103.545 121.381 103.702 121.381 103.87C121.381 103.985 121.339 104.111 121.254 104.252L119.635 106.961C119.519 107.16 119.351 107.26 119.124 107.26C119.066 107.26 118.955 107.233 118.781 107.176C117.046 106.243 115.242 105.777 113.37 105.777C112.146 105.777 111.197 105.986 110.517 106.411C109.836 106.835 109.493 107.401 109.493 108.103C109.493 108.894 109.857 109.46 110.58 109.795C111.302 110.13 112.521 110.471 114.224 110.811C115.727 111.094 117.035 111.44 118.143 111.849C119.25 112.257 120.194 112.917 120.975 113.818C121.755 114.72 122.146 115.919 122.146 117.417C122.146 119.702 121.307 121.446 119.63 122.646L119.641 122.651Z" fill="#52FFB8"/>
<path d="M143.632 114.463C143.632 114.861 143.421 115.055 142.993 115.055H130.035V116.239C130.035 117.506 130.441 118.476 131.248 119.136C132.055 119.801 133.157 120.131 134.55 120.131C135.768 120.131 136.849 119.963 137.788 119.623C138.727 119.282 139.65 118.806 140.557 118.182C140.699 118.098 140.826 118.056 140.942 118.056C141.142 118.056 141.295 118.14 141.411 118.313L143.157 120.639C143.273 120.754 143.326 120.88 143.326 121.022C143.326 121.247 143.225 121.42 143.025 121.53C140.552 123.479 137.667 124.448 134.376 124.448C132.699 124.448 131.158 124.144 129.75 123.536C128.342 122.928 127.208 122.006 126.343 120.765C125.478 119.523 125.046 117.999 125.046 116.191V110.183C125.046 108.208 125.489 106.568 126.364 105.274C127.245 103.975 128.395 103.021 129.819 102.414C131.238 101.806 132.772 101.502 134.423 101.502C136.074 101.502 137.593 101.806 138.985 102.414C140.378 103.021 141.501 103.975 142.35 105.274C143.204 106.573 143.626 108.208 143.626 110.183V114.457L143.632 114.463ZM138.816 110.146C138.816 108.679 138.405 107.595 137.582 106.887C136.76 106.18 135.71 105.829 134.428 105.829C133.147 105.829 132.029 106.175 131.232 106.866C130.436 107.558 130.04 108.653 130.04 110.146V111.246H138.822V110.146H138.816Z" fill="#52FFB8"/>
</g>
<defs>
<clipPath id="clip0_122_3170">
<rect width="191.032" height="220" fill="white"/>
</clipPath>
</defs>
</svg>
