<svg width="433" height="130" viewBox="0 0 433 130" fill="none" xmlns="http://www.w3.org/2000/svg">
<g clip-path="url(#clip0_1275_972)">
<path d="M268.995 105.003C270.243 105.003 271.208 105.323 271.891 105.963C272.574 106.593 272.915 107.473 272.915 108.603C272.915 109.745 272.574 110.63 271.891 111.259C271.208 111.889 270.243 112.203 268.995 112.203H266.051V116.315C266.051 116.401 266.008 116.443 265.923 116.443H265.315C265.219 116.443 265.171 116.401 265.171 116.315V105.131C265.171 105.046 265.219 105.003 265.315 105.003H268.995ZM268.899 111.387C269.934 111.387 270.712 111.153 271.235 110.683C271.768 110.214 272.035 109.521 272.035 108.603C272.035 107.697 271.768 107.009 271.235 106.539C270.712 106.059 269.934 105.819 268.899 105.819H266.051V111.387H268.899ZM274.47 116.443C274.374 116.443 274.326 116.401 274.326 116.315V108.763C274.326 108.689 274.363 108.635 274.438 108.603C274.833 108.422 275.265 108.283 275.734 108.187C276.203 108.081 276.673 108.027 277.142 108.027C277.579 108.027 278.123 108.075 278.774 108.171C278.859 108.182 278.902 108.23 278.902 108.315V108.811C278.902 108.854 278.886 108.886 278.854 108.907C278.833 108.929 278.801 108.934 278.758 108.923C278.246 108.838 277.739 108.795 277.238 108.795C276.481 108.795 275.793 108.923 275.174 109.179V116.315C275.174 116.401 275.131 116.443 275.046 116.443H274.47ZM285.886 112.635C285.886 112.721 285.838 112.763 285.742 112.763H280.222V113.659C280.222 114.331 280.452 114.865 280.91 115.259C281.369 115.654 281.945 115.851 282.638 115.851C283.182 115.851 283.662 115.761 284.078 115.579C284.505 115.387 284.894 115.137 285.246 114.827C285.332 114.774 285.396 114.785 285.438 114.859L285.726 115.227C285.79 115.291 285.785 115.355 285.71 115.419C284.793 116.219 283.764 116.619 282.622 116.619C282.046 116.619 281.508 116.502 281.006 116.267C280.505 116.033 280.105 115.691 279.806 115.243C279.508 114.795 279.358 114.267 279.358 113.659V111.131C279.358 110.139 279.668 109.377 280.286 108.843C280.905 108.299 281.689 108.027 282.638 108.027C283.588 108.027 284.366 108.299 284.974 108.843C285.582 109.377 285.886 110.139 285.886 111.131V112.635ZM285.054 111.131C285.054 110.395 284.83 109.825 284.382 109.419C283.945 109.014 283.364 108.811 282.638 108.811C281.892 108.811 281.3 109.014 280.862 109.419C280.436 109.814 280.222 110.385 280.222 111.131V112.043H285.054V111.131ZM292.873 105.131C292.873 105.046 292.916 105.003 293.001 105.003H293.577C293.673 105.003 293.721 105.046 293.721 105.131V115.899C293.721 115.985 293.684 116.033 293.609 116.043C293.161 116.225 292.676 116.363 292.153 116.459C291.641 116.566 291.135 116.619 290.633 116.619C289.545 116.619 288.692 116.337 288.073 115.771C287.465 115.195 287.161 114.331 287.161 113.179V111.451C287.161 110.342 287.465 109.494 288.073 108.907C288.681 108.321 289.513 108.027 290.569 108.027C291.391 108.027 292.159 108.241 292.873 108.667V105.131ZM288.025 113.179C288.025 114.107 288.249 114.785 288.697 115.211C289.145 115.638 289.796 115.851 290.649 115.851C291.449 115.851 292.191 115.729 292.873 115.483V109.483C292.191 109.025 291.444 108.795 290.633 108.795C288.895 108.795 288.025 109.681 288.025 111.451V113.179ZM296.699 105.947C296.699 106.107 296.646 106.241 296.539 106.347C296.432 106.454 296.299 106.507 296.139 106.507C295.968 106.507 295.83 106.454 295.723 106.347C295.616 106.241 295.563 106.107 295.563 105.947C295.563 105.777 295.616 105.638 295.723 105.531C295.83 105.425 295.968 105.371 296.139 105.371C296.299 105.371 296.432 105.425 296.539 105.531C296.646 105.638 296.699 105.777 296.699 105.947ZM295.835 116.443C295.75 116.443 295.707 116.401 295.707 116.315V108.347C295.707 108.251 295.75 108.203 295.835 108.203H296.427C296.512 108.203 296.555 108.251 296.555 108.347V116.315C296.555 116.401 296.512 116.443 296.427 116.443H295.835ZM304.35 115.643C303.923 115.974 303.481 116.219 303.022 116.379C302.574 116.539 302.078 116.619 301.534 116.619C300.873 116.619 300.291 116.491 299.79 116.235C299.299 115.969 298.921 115.606 298.654 115.147C298.387 114.689 298.254 114.171 298.254 113.595V111.051C298.254 110.475 298.387 109.958 298.654 109.499C298.921 109.041 299.299 108.683 299.79 108.427C300.291 108.161 300.873 108.027 301.534 108.027C302.451 108.027 303.31 108.305 304.11 108.859C304.185 108.923 304.201 108.987 304.158 109.051L303.886 109.467C303.822 109.531 303.758 109.542 303.694 109.499C303.033 109.041 302.313 108.811 301.534 108.811C300.777 108.811 300.179 109.025 299.742 109.451C299.315 109.867 299.102 110.401 299.102 111.051V113.595C299.102 114.257 299.315 114.801 299.742 115.227C300.179 115.643 300.777 115.851 301.534 115.851C302.366 115.851 303.155 115.579 303.902 115.035C303.977 114.971 304.041 114.977 304.094 115.051L304.366 115.451C304.419 115.537 304.414 115.601 304.35 115.643ZM306.427 113.867C306.427 114.486 306.576 114.966 306.875 115.307C307.184 115.649 307.627 115.819 308.203 115.819L309.083 115.787H309.115C309.179 115.787 309.211 115.83 309.211 115.915V116.427C309.211 116.513 309.168 116.561 309.083 116.571C308.795 116.603 308.491 116.619 308.171 116.619C307.371 116.619 306.736 116.385 306.267 115.915C305.808 115.446 305.579 114.774 305.579 113.899V106.283C305.579 106.198 305.622 106.155 305.707 106.155H306.219C306.294 106.155 306.342 106.198 306.363 106.283L306.411 108.235H308.859C308.944 108.235 308.987 108.283 308.987 108.379V108.875C308.987 108.961 308.944 109.003 308.859 109.003H306.427V113.867ZM311.172 115.867C311.172 116.049 311.113 116.198 310.996 116.315C310.879 116.433 310.729 116.491 310.548 116.491C310.367 116.491 310.217 116.433 310.1 116.315C309.993 116.198 309.94 116.049 309.94 115.867C309.94 115.686 309.993 115.537 310.1 115.419C310.217 115.302 310.367 115.243 310.548 115.243C310.729 115.243 310.879 115.302 310.996 115.419C311.113 115.537 311.172 115.686 311.172 115.867Z" fill="#9DA3A4"/>
<path d="M324.995 105.003C326.243 105.003 327.208 105.323 327.891 105.963C328.574 106.593 328.915 107.473 328.915 108.603C328.915 109.745 328.574 110.63 327.891 111.259C327.208 111.889 326.243 112.203 324.995 112.203H322.051V116.315C322.051 116.401 322.008 116.443 321.923 116.443H321.315C321.219 116.443 321.171 116.401 321.171 116.315V105.131C321.171 105.046 321.219 105.003 321.315 105.003H324.995ZM324.899 111.387C325.934 111.387 326.712 111.153 327.235 110.683C327.768 110.214 328.035 109.521 328.035 108.603C328.035 107.697 327.768 107.009 327.235 106.539C326.712 106.059 325.934 105.819 324.899 105.819H322.051V111.387H324.899ZM330.47 116.443C330.374 116.443 330.326 116.401 330.326 116.315V108.763C330.326 108.689 330.363 108.635 330.438 108.603C330.833 108.422 331.265 108.283 331.734 108.187C332.203 108.081 332.673 108.027 333.142 108.027C333.579 108.027 334.123 108.075 334.774 108.171C334.859 108.182 334.902 108.23 334.902 108.315V108.811C334.902 108.854 334.886 108.886 334.854 108.907C334.833 108.929 334.801 108.934 334.758 108.923C334.246 108.838 333.739 108.795 333.238 108.795C332.481 108.795 331.793 108.923 331.174 109.179V116.315C331.174 116.401 331.131 116.443 331.046 116.443H330.47ZM341.886 112.635C341.886 112.721 341.838 112.763 341.742 112.763H336.222V113.659C336.222 114.331 336.452 114.865 336.91 115.259C337.369 115.654 337.945 115.851 338.638 115.851C339.182 115.851 339.662 115.761 340.078 115.579C340.505 115.387 340.894 115.137 341.246 114.827C341.332 114.774 341.396 114.785 341.438 114.859L341.726 115.227C341.79 115.291 341.785 115.355 341.71 115.419C340.793 116.219 339.764 116.619 338.622 116.619C338.046 116.619 337.508 116.502 337.006 116.267C336.505 116.033 336.105 115.691 335.806 115.243C335.508 114.795 335.358 114.267 335.358 113.659V111.131C335.358 110.139 335.668 109.377 336.286 108.843C336.905 108.299 337.689 108.027 338.638 108.027C339.588 108.027 340.366 108.299 340.974 108.843C341.582 109.377 341.886 110.139 341.886 111.131V112.635ZM341.054 111.131C341.054 110.395 340.83 109.825 340.382 109.419C339.945 109.014 339.364 108.811 338.638 108.811C337.892 108.811 337.3 109.014 336.862 109.419C336.436 109.814 336.222 110.385 336.222 111.131V112.043H341.054V111.131ZM345.645 116.443C345.57 116.443 345.522 116.406 345.501 116.331L342.445 108.363L342.429 108.315C342.429 108.241 342.471 108.203 342.557 108.203H343.181C343.255 108.203 343.303 108.241 343.325 108.315L345.181 113.307L345.469 114.059C345.703 114.721 345.885 115.206 346.013 115.515H346.029C346.221 114.971 346.493 114.235 346.845 113.307L348.701 108.315C348.711 108.283 348.733 108.257 348.765 108.235C348.797 108.214 348.829 108.203 348.861 108.203H349.485C349.527 108.203 349.559 108.219 349.581 108.251C349.602 108.283 349.607 108.321 349.597 108.363L346.541 116.331C346.509 116.406 346.455 116.443 346.381 116.443H345.645ZM356.838 112.635C356.838 112.721 356.79 112.763 356.694 112.763H351.174V113.659C351.174 114.331 351.403 114.865 351.862 115.259C352.32 115.654 352.896 115.851 353.59 115.851C354.134 115.851 354.614 115.761 355.03 115.579C355.456 115.387 355.846 115.137 356.198 114.827C356.283 114.774 356.347 114.785 356.39 114.859L356.678 115.227C356.742 115.291 356.736 115.355 356.662 115.419C355.744 116.219 354.715 116.619 353.574 116.619C352.998 116.619 352.459 116.502 351.958 116.267C351.456 116.033 351.056 115.691 350.758 115.243C350.459 114.795 350.31 114.267 350.31 113.659V111.131C350.31 110.139 350.619 109.377 351.238 108.843C351.856 108.299 352.64 108.027 353.59 108.027C354.539 108.027 355.318 108.299 355.926 108.843C356.534 109.377 356.838 110.139 356.838 111.131V112.635ZM356.006 111.131C356.006 110.395 355.782 109.825 355.334 109.419C354.896 109.014 354.315 108.811 353.59 108.811C352.843 108.811 352.251 109.014 351.814 109.419C351.387 109.814 351.174 110.385 351.174 111.131V112.043H356.006V111.131ZM358.545 116.443C358.449 116.443 358.401 116.401 358.401 116.315V108.811C358.401 108.737 358.438 108.683 358.513 108.651C359.462 108.235 360.454 108.027 361.489 108.027C362.588 108.027 363.441 108.305 364.049 108.859C364.657 109.414 364.961 110.246 364.961 111.355V116.315C364.961 116.401 364.918 116.443 364.833 116.443H364.257C364.161 116.443 364.113 116.401 364.113 116.315V111.387C364.113 109.67 363.238 108.811 361.489 108.811C360.71 108.811 359.964 108.939 359.249 109.195V116.315C359.249 116.401 359.206 116.443 359.121 116.443H358.545ZM367.661 113.867C367.661 114.486 367.811 114.966 368.109 115.307C368.419 115.649 368.861 115.819 369.437 115.819L370.317 115.787H370.349C370.413 115.787 370.445 115.83 370.445 115.915V116.427C370.445 116.513 370.403 116.561 370.317 116.571C370.029 116.603 369.725 116.619 369.405 116.619C368.605 116.619 367.971 116.385 367.501 115.915C367.043 115.446 366.813 114.774 366.813 113.899V106.283C366.813 106.198 366.856 106.155 366.941 106.155H367.453C367.528 106.155 367.576 106.198 367.597 106.283L367.645 108.235H370.093C370.179 108.235 370.221 108.283 370.221 108.379V108.875C370.221 108.961 370.179 109.003 370.093 109.003H367.661V113.867ZM372.406 115.867C372.406 116.049 372.348 116.198 372.23 116.315C372.113 116.433 371.964 116.491 371.782 116.491C371.601 116.491 371.452 116.433 371.334 116.315C371.228 116.198 371.174 116.049 371.174 115.867C371.174 115.686 371.228 115.537 371.334 115.419C371.452 115.302 371.601 115.243 371.782 115.243C371.964 115.243 372.113 115.302 372.23 115.419C372.348 115.537 372.406 115.686 372.406 115.867Z" fill="#9DA3A4"/>
<path d="M386.995 105.003C388.243 105.003 389.208 105.323 389.891 105.963C390.574 106.593 390.915 107.473 390.915 108.603C390.915 109.745 390.574 110.63 389.891 111.259C389.208 111.889 388.243 112.203 386.995 112.203H384.051V116.315C384.051 116.401 384.008 116.443 383.923 116.443H383.315C383.219 116.443 383.171 116.401 383.171 116.315V105.131C383.171 105.046 383.219 105.003 383.315 105.003H386.995ZM386.899 111.387C387.934 111.387 388.712 111.153 389.235 110.683C389.768 110.214 390.035 109.521 390.035 108.603C390.035 107.697 389.768 107.009 389.235 106.539C388.712 106.059 387.934 105.819 386.899 105.819H384.051V111.387H386.899ZM392.47 116.443C392.374 116.443 392.326 116.401 392.326 116.315V108.763C392.326 108.689 392.363 108.635 392.438 108.603C392.833 108.422 393.265 108.283 393.734 108.187C394.203 108.081 394.673 108.027 395.142 108.027C395.579 108.027 396.123 108.075 396.774 108.171C396.859 108.182 396.902 108.23 396.902 108.315V108.811C396.902 108.854 396.886 108.886 396.854 108.907C396.833 108.929 396.801 108.934 396.758 108.923C396.246 108.838 395.739 108.795 395.238 108.795C394.481 108.795 393.793 108.923 393.174 109.179V116.315C393.174 116.401 393.131 116.443 393.046 116.443H392.47ZM404.158 113.547C404.158 114.454 403.854 115.195 403.246 115.771C402.649 116.337 401.817 116.619 400.75 116.619C400.046 116.619 399.438 116.491 398.926 116.235C398.414 115.969 398.02 115.606 397.742 115.147C397.476 114.678 397.342 114.145 397.342 113.547V111.115C397.342 110.529 397.476 110.001 397.742 109.531C398.02 109.062 398.414 108.694 398.926 108.427C399.438 108.161 400.046 108.027 400.75 108.027C401.454 108.027 402.062 108.161 402.574 108.427C403.097 108.694 403.492 109.062 403.758 109.531C404.025 110.001 404.158 110.529 404.158 111.115V113.547ZM398.206 113.547C398.206 114.241 398.425 114.801 398.862 115.227C399.31 115.643 399.94 115.851 400.75 115.851C401.582 115.851 402.217 115.643 402.654 115.227C403.092 114.801 403.31 114.241 403.31 113.547V111.115C403.31 110.422 403.092 109.867 402.654 109.451C402.217 109.025 401.582 108.811 400.75 108.811C399.94 108.811 399.31 109.025 398.862 109.451C398.425 109.867 398.206 110.422 398.206 111.115V113.547ZM406.64 113.867C406.64 114.486 406.79 114.966 407.088 115.307C407.398 115.649 407.84 115.819 408.416 115.819L409.296 115.787H409.328C409.392 115.787 409.424 115.83 409.424 115.915V116.427C409.424 116.513 409.382 116.561 409.296 116.571C409.008 116.603 408.704 116.619 408.384 116.619C407.584 116.619 406.95 116.385 406.48 115.915C406.022 115.446 405.792 114.774 405.792 113.899V106.283C405.792 106.198 405.835 106.155 405.92 106.155H406.432C406.507 106.155 406.555 106.198 406.576 106.283L406.624 108.235H409.072C409.158 108.235 409.2 108.283 409.2 108.379V108.875C409.2 108.961 409.158 109.003 409.072 109.003H406.64V113.867ZM416.588 112.635C416.588 112.721 416.54 112.763 416.444 112.763H410.924V113.659C410.924 114.331 411.153 114.865 411.612 115.259C412.07 115.654 412.646 115.851 413.34 115.851C413.884 115.851 414.364 115.761 414.78 115.579C415.206 115.387 415.596 115.137 415.948 114.827C416.033 114.774 416.097 114.785 416.14 114.859L416.428 115.227C416.492 115.291 416.486 115.355 416.412 115.419C415.494 116.219 414.465 116.619 413.324 116.619C412.748 116.619 412.209 116.502 411.708 116.267C411.206 116.033 410.806 115.691 410.508 115.243C410.209 114.795 410.06 114.267 410.06 113.659V111.131C410.06 110.139 410.369 109.377 410.988 108.843C411.606 108.299 412.39 108.027 413.34 108.027C414.289 108.027 415.068 108.299 415.676 108.843C416.284 109.377 416.588 110.139 416.588 111.131V112.635ZM415.756 111.131C415.756 110.395 415.532 109.825 415.084 109.419C414.646 109.014 414.065 108.811 413.34 108.811C412.593 108.811 412.001 109.014 411.564 109.419C411.137 109.814 410.924 110.385 410.924 111.131V112.043H415.756V111.131ZM423.975 115.643C423.548 115.974 423.106 116.219 422.647 116.379C422.199 116.539 421.703 116.619 421.159 116.619C420.498 116.619 419.916 116.491 419.415 116.235C418.924 115.969 418.546 115.606 418.279 115.147C418.012 114.689 417.879 114.171 417.879 113.595V111.051C417.879 110.475 418.012 109.958 418.279 109.499C418.546 109.041 418.924 108.683 419.415 108.427C419.916 108.161 420.498 108.027 421.159 108.027C422.076 108.027 422.935 108.305 423.735 108.859C423.81 108.923 423.826 108.987 423.783 109.051L423.511 109.467C423.447 109.531 423.383 109.542 423.319 109.499C422.658 109.041 421.938 108.811 421.159 108.811C420.402 108.811 419.804 109.025 419.367 109.451C418.94 109.867 418.727 110.401 418.727 111.051V113.595C418.727 114.257 418.94 114.801 419.367 115.227C419.804 115.643 420.402 115.851 421.159 115.851C421.991 115.851 422.78 115.579 423.527 115.035C423.602 114.971 423.666 114.977 423.719 115.051L423.991 115.451C424.044 115.537 424.039 115.601 423.975 115.643ZM426.052 113.867C426.052 114.486 426.201 114.966 426.5 115.307C426.809 115.649 427.252 115.819 427.828 115.819L428.708 115.787H428.74C428.804 115.787 428.836 115.83 428.836 115.915V116.427C428.836 116.513 428.793 116.561 428.708 116.571C428.42 116.603 428.116 116.619 427.796 116.619C426.996 116.619 426.361 116.385 425.892 115.915C425.433 115.446 425.204 114.774 425.204 113.899V106.283C425.204 106.198 425.247 106.155 425.332 106.155H425.844C425.919 106.155 425.967 106.198 425.988 106.283L426.036 108.235H428.484C428.569 108.235 428.612 108.283 428.612 108.379V108.875C428.612 108.961 428.569 109.003 428.484 109.003H426.052V113.867ZM430.797 115.867C430.797 116.049 430.738 116.198 430.621 116.315C430.504 116.433 430.354 116.491 430.173 116.491C429.992 116.491 429.842 116.433 429.725 116.315C429.618 116.198 429.565 116.049 429.565 115.867C429.565 115.686 429.618 115.537 429.725 115.419C429.842 115.302 429.992 115.243 430.173 115.243C430.354 115.243 430.504 115.302 430.621 115.419C430.738 115.537 430.797 115.686 430.797 115.867Z" fill="#9DA3A4"/>
<path d="M169.481 44.6701C167.772 44.6701 166.465 45.1713 165.567 46.169C164.663 47.1666 164.216 48.5585 164.216 50.3347V52.2668H171.671C171.921 52.2668 172.044 52.403 172.044 52.6804V54.1063C172.044 54.3545 171.921 54.4762 171.671 54.4762H164.216V75.5191C164.216 75.7673 164.094 75.889 163.843 75.889H162.164C161.884 75.889 161.746 75.7673 161.746 75.5191V50.3785C161.746 47.8917 162.424 45.95 163.774 44.5533C165.125 43.1566 166.937 42.4558 169.206 42.4558C170.291 42.4558 171.224 42.5191 172 42.6407C172.25 42.6699 172.373 42.8111 172.373 43.0544V44.4365C172.373 44.6847 172.25 44.8064 172 44.8064C171.16 44.7139 170.32 44.6701 169.486 44.6701H169.481Z" fill="white"/>
<path d="M193.995 67.5575C193.995 70.166 193.116 72.2926 191.362 73.9375C189.604 75.5824 187.174 76.4 184.07 76.4C182.017 76.4 180.25 76.0253 178.757 75.271C177.264 74.5167 176.125 73.4752 175.334 72.1418C174.544 70.8084 174.146 69.2803 174.146 67.5624V60.5643C174.146 58.8756 174.544 57.3572 175.334 56.0043C176.125 54.6563 177.269 53.5954 178.757 52.8265C180.25 52.0576 182.017 51.6731 184.07 51.6731C186.123 51.6731 187.9 52.0576 189.403 52.8265C190.911 53.5954 192.05 54.6514 192.831 56.0043C193.607 57.3572 193.995 58.8756 193.995 60.5643V67.5624V67.5575ZM176.655 67.5575C176.655 69.5528 177.298 71.1587 178.59 72.3705C179.876 73.5823 181.703 74.1906 184.065 74.1906C186.427 74.1906 188.337 73.5823 189.609 72.3705C190.881 71.1587 191.52 69.5528 191.52 67.5575V60.5594C191.52 58.5641 190.881 56.9582 189.609 55.7464C188.337 54.5346 186.486 53.9263 184.065 53.9263C181.644 53.9263 179.876 54.5346 178.59 55.7464C177.298 56.9582 176.655 58.5641 176.655 60.5594V67.5575Z" fill="white"/>
<path d="M199.863 75.889C199.583 75.889 199.445 75.7673 199.445 75.5191V53.7851C199.445 53.571 199.553 53.4153 199.769 53.3228C200.919 52.8021 202.176 52.3933 203.546 52.1013C204.911 51.8093 206.281 51.6633 207.646 51.6633C208.918 51.6633 210.504 51.7996 212.4 52.077C212.65 52.1062 212.773 52.2473 212.773 52.4906V53.9165C212.773 54.0382 212.733 54.1307 212.655 54.1939C212.576 54.2572 212.478 54.2718 212.35 54.2377C210.858 53.9944 209.384 53.8679 207.926 53.8679C205.721 53.8679 203.718 54.2377 201.915 54.9726V75.5094C201.915 75.7576 201.793 75.8793 201.542 75.8793H199.863V75.889Z" fill="white"/>
<path d="M218.832 68.4773C218.832 70.2585 219.274 71.6406 220.163 72.6236C221.047 73.6067 222.329 74.0982 224.008 74.0982L226.572 74.0057H226.665C226.851 74.0057 226.945 74.1274 226.945 74.3756V75.8501C226.945 76.0935 226.822 76.2346 226.572 76.2638C225.732 76.3563 224.848 76.4001 223.915 76.4001C221.582 76.4001 219.746 75.7236 218.39 74.3756C217.04 73.0227 216.362 71.0907 216.362 68.5747V46.6557C216.362 46.4124 216.485 46.2859 216.736 46.2859H218.228C218.444 46.2859 218.587 46.4076 218.646 46.6557L218.783 52.2717H225.913C226.164 52.2717 226.287 52.408 226.287 52.6854V54.1113C226.287 54.3595 226.164 54.4811 225.913 54.4811H218.827V68.4773H218.832Z" fill="white"/>
<path d="M248.655 52.1743C248.905 52.1743 249.028 52.3106 249.028 52.588V74.137C249.028 74.3511 248.935 74.5069 248.748 74.5993C246.013 75.7965 243.17 76.3951 240.218 76.3951C237.11 76.3951 234.679 75.597 232.926 74.0008C231.168 72.4045 230.294 70.0102 230.294 66.8177V52.588C230.294 52.3106 230.417 52.1743 230.667 52.1743H232.347C232.626 52.1743 232.764 52.3106 232.764 52.588V66.7691C232.764 71.7135 235.249 74.1808 240.218 74.1808C242.33 74.1808 244.441 73.7964 246.558 73.0274V52.5831C246.558 52.3057 246.695 52.1694 246.975 52.1694H248.655V52.1743Z" fill="white"/>
<path d="M255.736 75.889C255.456 75.889 255.318 75.7673 255.318 75.5191V53.9214C255.318 53.7073 255.426 53.5515 255.642 53.4591C258.407 52.2619 261.295 51.6633 264.31 51.6633C267.507 51.6633 269.996 52.4614 271.764 54.0577C273.537 55.6539 274.421 58.0482 274.421 61.2407V75.5143C274.421 75.7625 274.298 75.8841 274.048 75.8841H272.368C272.088 75.8841 271.946 75.7625 271.946 75.5143V61.3332C271.946 56.3887 269.397 53.9214 264.305 53.9214C262.036 53.9214 259.861 54.2913 257.779 55.0261V75.5191C257.779 75.7673 257.656 75.889 257.405 75.889H255.726H255.736Z" fill="white"/>
<path d="M284.002 52.3155C285.475 51.8872 287.056 51.6731 288.731 51.6731C291.618 51.6731 293.823 52.4274 295.35 53.9312C296.872 55.4349 297.633 57.5859 297.633 60.3793V74.3755C297.633 74.5897 297.525 74.7454 297.309 74.8378C296.131 75.2661 294.785 75.636 293.278 75.9426C291.77 76.2491 290.223 76.4049 288.642 76.4049C285.814 76.4049 283.476 75.7625 281.63 74.4729C279.783 73.1832 278.855 71.3437 278.855 68.9493C278.855 66.555 279.724 64.8225 281.463 63.5621C283.201 62.3016 285.593 61.6738 288.637 61.6738C290.282 61.6738 292.458 61.922 295.163 62.4087V60.428C295.163 58.3111 294.643 56.7002 293.602 55.5907C292.561 54.486 290.906 53.9312 288.637 53.9312C287.302 53.9312 286.005 54.1064 284.748 54.4616C283.491 54.8169 282.411 55.2695 281.507 55.8194C281.32 55.9751 281.148 55.9411 280.996 55.7269L280.206 54.5298C280.049 54.3156 280.049 54.1599 280.206 54.0674C281.261 53.3326 282.528 52.7486 284.002 52.3155ZM283.373 72.7793C284.709 73.7137 286.462 74.1857 288.637 74.1857C290.813 74.1857 292.988 73.8159 295.163 73.081V64.5159C293.022 64.0536 290.847 63.8249 288.637 63.8249C286.246 63.8249 284.434 64.2628 283.206 65.1388C281.978 66.0148 281.365 67.2801 281.365 68.9396C281.365 70.5991 282.032 71.8498 283.368 72.7842L283.373 72.7793Z" fill="white"/>
<path d="M103.993 21.5341L57.3906 2.08741C51.0117 -0.827647 43.3069 -0.749783 37.1048 2.7152L10.7936 21.0475C5.39679 24.4492 0.491063 30.7708 0 38.5476V87.1595C0.491063 93.9629 4.41466 100.771 11.7708 105.633L46.597 125.566C58.8589 131.401 64.2557 130.915 71.1305 127.377L98.5957 110.013C100.069 109.039 106.296 105.414 107.916 104.178C120.031 95.2039 131.954 83.276 131.954 63.3426C131.954 47.2928 123.881 30.1625 103.993 21.5341ZM103.501 104.66C98.5564 106.631 90.5079 108.436 84.3696 108.061C60.332 106.601 41.6913 87.4563 41.6913 62.8511C41.6913 38.2458 60.1209 19.3296 84.9441 19.3296C91.5244 19.3296 97.7658 20.7311 103.393 23.2423C113.313 28.8242 113.313 39.516 113.313 46.3243V79.8694C113.313 87.6267 114.295 99.3161 103.501 104.664V104.66Z" fill="url(#paint0_linear_1275_972)"/>
<path d="M325.668 76.395C322.462 76.395 319.933 75.558 318.086 73.8839C316.235 72.2098 315.312 69.9712 315.312 67.168V60.8172C315.312 58.0141 316.235 55.7852 318.086 54.1208C319.938 52.4613 322.447 51.6292 325.624 51.6292C328.335 51.6292 330.864 52.3591 333.206 53.824C333.422 53.9456 333.53 54.1306 333.53 54.3739C333.53 54.4955 333.486 54.6318 333.393 54.7875L331.591 57.5274C331.433 57.7415 331.252 57.8486 331.036 57.8486C330.883 57.8486 330.741 57.8048 330.618 57.7123C329.076 56.8315 327.456 56.3886 325.762 56.3886C324.067 56.3886 322.869 56.7682 321.99 57.5323C321.111 58.2915 320.674 59.3913 320.674 60.8221V67.2216C320.674 68.6231 321.111 69.7132 321.99 70.487C322.869 71.2657 324.112 71.6501 325.713 71.6501C327.593 71.6501 329.381 71.1002 331.075 70.0052C331.262 69.9128 331.414 69.869 331.537 69.869C331.753 69.869 331.92 69.976 332.047 70.1901L333.987 72.93C334.08 73.1149 334.124 73.2658 334.124 73.3875C334.124 73.5383 334.031 73.6941 333.845 73.8449C331.409 75.5531 328.679 76.4047 325.658 76.4047L325.668 76.395Z" fill="white"/>
<path d="M353.644 52.8167C353.644 52.3884 353.875 52.1792 354.337 52.1792H358.314C358.776 52.1792 359.007 52.3933 359.007 52.8167V74.3414C359.007 77.9037 358.167 80.5706 356.487 82.3372C354.808 84.1037 352.21 84.9894 348.694 84.9894C346.755 84.9894 345.055 84.7607 343.607 84.3032C342.158 83.8458 340.832 83.1158 339.629 82.1084C339.443 81.9868 339.349 81.8359 339.349 81.651C339.349 81.5293 339.394 81.3785 339.487 81.1935L341.476 78.405C341.628 78.1617 341.8 78.04 341.986 78.04C342.109 78.04 342.232 78.0838 342.355 78.1763C344.417 79.5778 346.519 80.2786 348.645 80.2786C350.374 80.2786 351.665 79.8309 352.529 78.9306C353.394 78.0303 353.777 76.5022 353.683 74.3366C351.896 74.8865 350.246 75.159 348.734 75.159C347.069 75.159 345.483 74.8086 343.97 74.1078C342.458 73.4071 341.225 72.3559 340.273 70.9543C339.315 69.5528 338.839 67.8495 338.839 65.8347V52.8118C338.839 52.3836 339.069 52.1743 339.531 52.1743H343.553C343.985 52.1743 344.201 52.3884 344.201 52.8118V65.606C344.201 67.2801 344.717 68.4918 345.748 69.2364C346.779 69.981 348.1 70.3557 349.701 70.3557C350.408 70.3557 351.11 70.273 351.803 70.1027C352.495 69.9372 353.104 69.7133 353.629 69.4408V52.807L353.644 52.8167Z" fill="white"/>
<path d="M381.345 74.4533C379.523 75.7478 377.166 76.3951 374.269 76.3951C370.753 76.3951 367.625 75.4072 364.88 73.4265C364.664 73.3048 364.556 73.154 364.556 72.969C364.556 72.7841 364.6 72.6333 364.693 72.5116L366.451 69.543C366.603 69.2997 366.761 69.178 366.913 69.178C366.977 69.178 367.129 69.2413 367.374 69.3629C368.42 70.127 369.55 70.7061 370.748 71.1003C371.951 71.4945 373.154 71.694 374.357 71.694C375.619 71.694 376.655 71.4653 377.456 71.0078C378.256 70.5504 378.659 69.8983 378.659 69.0417C378.659 68.1852 378.281 67.6256 377.525 67.2606C376.768 66.8956 375.713 66.589 374.357 66.3457C371.769 65.859 369.565 65.0755 367.743 63.9903C365.921 62.9099 365.012 61.1628 365.012 58.7587C365.012 56.3547 365.96 54.593 367.856 53.3909C369.751 52.1889 372.069 51.5854 374.814 51.5854C377.559 51.5854 380.24 52.2862 382.862 53.6878C383.108 53.8387 383.231 54.009 383.231 54.189C383.231 54.3107 383.187 54.447 383.093 54.6027L381.335 57.5275C381.213 57.7416 381.026 57.8487 380.78 57.8487C380.717 57.8487 380.594 57.8195 380.412 57.7562C378.531 56.7489 376.572 56.2476 374.539 56.2476C373.213 56.2476 372.182 56.4763 371.44 56.9338C370.699 57.3912 370.331 57.9996 370.331 58.7636C370.331 59.6152 370.723 60.2236 371.509 60.5934C372.295 60.9584 373.611 61.3234 375.462 61.6884C377.097 61.995 378.512 62.3648 379.715 62.8077C380.918 63.2506 381.944 63.9562 382.789 64.9344C383.638 65.9077 384.061 67.2022 384.061 68.8179C384.061 71.2852 383.152 73.1686 381.33 74.4631L381.345 74.4533Z" fill="white"/>
<path d="M409.002 65.6107C409.002 66.039 408.771 66.2483 408.309 66.2483H394.25V67.5281C394.25 68.9005 394.687 69.942 395.566 70.6573C396.445 71.3727 397.639 71.7328 399.151 71.7328C400.477 71.7328 401.651 71.5479 402.667 71.1829C403.684 70.8179 404.685 70.3021 405.672 69.6305C405.825 69.538 405.967 69.4942 406.09 69.4942C406.306 69.4942 406.473 69.5867 406.601 69.7668L408.496 72.2779C408.619 72.3996 408.683 72.5358 408.683 72.6916C408.683 72.9349 408.575 73.1198 408.359 73.2415C405.677 75.3438 402.549 76.395 398.969 76.395C397.148 76.395 395.478 76.0689 393.951 75.412C392.424 74.755 391.191 73.7573 390.253 72.419C389.31 71.0807 388.844 69.4358 388.844 67.4844V60.9972C388.844 58.8657 389.32 57.0991 390.278 55.6976C391.23 54.296 392.483 53.2692 394.024 52.6122C395.566 51.9552 397.231 51.6292 399.019 51.6292C400.806 51.6292 402.456 51.9552 403.968 52.6122C405.481 53.2692 406.699 54.296 407.622 55.6976C408.545 57.0991 409.012 58.8657 409.012 60.9972V65.6107H409.002ZM403.772 60.9486C403.772 59.367 403.325 58.1941 402.431 57.4301C401.538 56.6709 400.398 56.2864 399.009 56.2864C397.619 56.2864 396.401 56.6612 395.542 57.4057C394.678 58.1503 394.245 59.3329 394.245 60.9486V62.136H403.772V60.9486Z" fill="white"/>
<path d="M424.539 76.395C421.332 76.395 418.803 75.558 416.957 73.8839C415.106 72.2098 414.182 69.9712 414.182 67.168V60.8172C414.182 58.0141 415.106 55.7852 416.957 54.1208C418.808 52.4613 421.318 51.6292 424.495 51.6292C427.205 51.6292 429.734 52.3591 432.077 53.824C432.293 53.9456 432.401 54.1306 432.401 54.3739C432.401 54.4955 432.357 54.6318 432.263 54.7875L430.461 57.5274C430.304 57.7415 430.122 57.8486 429.906 57.8486C429.754 57.8486 429.612 57.8048 429.489 57.7123C427.947 56.8315 426.326 56.3886 424.632 56.3886C422.938 56.3886 421.74 56.7682 420.866 57.5323C419.987 58.2915 419.55 59.3913 419.55 60.8221V67.2216C419.55 68.6231 419.992 69.7132 420.866 70.487C421.745 71.2657 422.987 71.6501 424.588 71.6501C426.469 71.6501 428.256 71.1002 429.95 70.0052C430.137 69.9128 430.289 69.869 430.412 69.869C430.628 69.869 430.795 69.976 430.923 70.1901L432.862 72.93C432.956 73.1149 433 73.2658 433 73.3875C433 73.5383 432.907 73.6941 432.72 73.8449C430.284 75.5531 427.554 76.4047 424.534 76.4047L424.539 76.395Z" fill="white"/>
</g>
<defs>
<linearGradient id="paint0_linear_1275_972" x1="0" y1="65.0021" x2="131.954" y2="65.0021" gradientUnits="userSpaceOnUse">
<stop stop-color="#E33000"/>
<stop offset="1" stop-color="#E35322"/>
</linearGradient>
<clipPath id="clip0_1275_972">
<rect width="433" height="130" fill="white"/>
</clipPath>
</defs>
</svg>
