<svg width="194" height="194" viewBox="0 0 194 194" fill="none" xmlns="http://www.w3.org/2000/svg">
<g clip-path="url(#clip0_122_591)">
<path fill-rule="evenodd" clip-rule="evenodd" d="M127.102 23.2427C127.615 23.2427 128.128 23.499 128.64 24.0116C131.716 24.7805 134.792 24.7805 137.867 24.0116L147.094 20.167C150.939 18.6291 155.553 19.398 159.397 22.4737L171.7 35.5454C174.776 38.6211 176.314 43.2347 174.776 47.8482L170.931 57.0753C169.393 60.151 169.393 63.2267 170.931 65.5335C170.931 66.3024 171.7 67.0713 171.7 67.8403C172.469 70.147 174.776 72.4538 177.851 73.9917L187.078 77.8363C190.923 79.3741 193.999 83.2188 193.999 87.8323V106.286C193.999 110.9 190.923 114.745 187.078 117.051L177.851 120.896C174.776 122.434 172.469 123.972 171.7 127.047C171.7 127.816 170.931 127.816 170.931 128.585C169.393 131.661 169.393 134.737 170.931 137.812L174.776 147.039C176.314 150.884 174.776 155.498 171.7 159.342L159.397 171.645C155.553 174.721 150.939 176.259 147.094 174.721L137.867 170.876C134.792 169.338 131.716 169.338 128.64 170.876C128.64 170.876 127.871 171.645 127.102 171.645C124.027 172.414 122.489 174.721 120.951 177.796L117.106 187.024C114.8 190.868 110.955 193.944 106.341 193.944H88.6562C83.2737 193.944 79.4291 190.868 77.8912 187.024L74.0466 177.796C72.5087 174.721 70.202 172.414 67.8952 171.645C67.1263 171.645 66.3573 170.876 65.5884 170.876C63.2816 169.338 60.206 169.338 57.1303 170.876L47.9032 174.721C43.2896 176.259 38.6761 174.721 35.6004 171.645L22.5287 159.342C19.453 155.498 18.684 150.884 20.2219 147.039L24.0665 137.812C24.8354 134.737 24.8354 131.661 24.0665 128.585C23.2976 128.585 23.2976 127.816 23.2976 127.047C21.7597 123.972 19.453 122.434 17.1462 120.896L7.9191 117.051C3.30555 114.745 0.998779 110.9 0.998779 106.286V88.6012C0.998779 83.2188 3.30555 79.3741 7.9191 77.8363L17.1462 73.9917C19.453 72.4538 21.7597 70.147 23.2976 67.8403C23.2976 67.0713 23.2976 66.3024 24.0665 65.5335C24.8354 63.2267 24.8354 60.151 24.0665 57.0753L20.2219 47.8482C18.684 43.2347 19.453 38.6211 22.5287 35.5454L35.6004 22.4737C38.6761 19.398 43.2896 18.6291 47.9032 20.167L57.1303 24.0116C60.206 24.7805 63.2816 24.7805 65.5884 24.0116C66.3573 23.2427 67.1263 23.2427 67.8952 23.2427C70.202 21.7048 72.5087 19.398 74.0466 17.0913L77.8912 7.86417C79.4291 3.25062 83.2737 0.943848 87.8872 0.943848H106.341C110.955 0.943848 114.8 3.25062 117.106 7.86417L120.951 17.0913C122.489 19.398 124.027 21.7048 127.102 23.2427ZM97.1143 44.7725C126.333 44.7725 150.17 67.8403 150.17 97.0594C150.17 126.279 126.333 150.115 97.1143 150.115C67.8952 150.115 44.8275 126.279 44.8275 97.0594C44.8275 67.8403 67.8952 44.7725 97.1143 44.7725Z" fill="#EEF36A"/>
</g>
<defs>
<clipPath id="clip0_122_591">
<rect width="193" height="193" fill="white" transform="translate(0.998779 0.943848)"/>
</clipPath>
</defs>
</svg>
