<svg width="220" height="175" viewBox="0 0 220 175" fill="none" xmlns="http://www.w3.org/2000/svg">
<g clip-path="url(#clip0_122_600)">
<path fill-rule="evenodd" clip-rule="evenodd" d="M140.908 158.398C140.753 161.506 140.056 164.457 138.971 167.254H138.894C137.499 170.982 140.443 174.944 144.394 174.944H167.633C170.031 174.944 172.12 173.438 173 171.33V51.3609C172.17 49.1505 170.027 47.551 167.556 47.551H130.14L134.401 36.9091C135.485 34.1903 136.182 30.5394 136.182 27.3546C136.182 8.8671 115.964 -5.96951 96.9076 4.36174C88.464 8.94477 83.5062 17.8001 83.5062 27.51C83.5062 30.9278 84.0485 33.8796 85.2879 36.9091L89.5485 47.551H52.2105C49.0344 47.551 46.4006 50.1921 46.4006 53.3769V90.8957L35.7879 86.6233C33.0766 85.5358 29.4358 84.8367 26.2598 84.8367C7.82313 84.8367 -6.97264 105.111 3.33017 124.22C7.97806 132.764 16.809 137.658 26.4921 137.658C29.9781 137.658 32.8443 137.114 35.8654 135.872L46.4781 131.599V169.118C46.4781 172.303 49.1119 174.944 52.2879 174.944H76.9992C81.1048 174.944 83.7386 170.827 82.3443 166.943C81.1823 163.681 80.5626 160.03 80.5626 156.301C80.5626 136.648 99.3091 121.268 119.837 127.327C133.161 131.289 141.837 144.572 140.908 158.398Z" fill="#D8421A"/>
</g>
<defs>
<clipPath id="clip0_122_600">
<rect width="220" height="174" fill="white" transform="translate(-0.000488281 0.943848)"/>
</clipPath>
</defs>
</svg>
